<svg width="150" height="64" viewBox="0 0 150 64" fill="none" xmlns="http://www.w3.org/2000/svg">
<path d="M56.9185 63.0659V28.4023H62.8107V45.6004C63.5656 44.7559 64.506 44.0777 65.632 43.5659C66.7708 43.0541 68.0247 42.7982 69.3938 42.7982C70.9037 42.7982 72.228 43.1309 73.3667 43.7962C74.5183 44.4488 75.4204 45.3636 76.0729 46.5408C76.7255 47.7052 77.0518 49.0679 77.0518 50.6289V63.0659H71.1596V51.8764C71.1596 50.4689 70.7885 49.375 70.0464 48.5944C69.317 47.8011 68.3126 47.4045 67.0331 47.4045C66.163 47.4045 65.4081 47.5836 64.7683 47.9419C64.1414 48.2874 63.6551 48.7672 63.3097 49.3814C62.977 49.9827 62.8107 50.6673 62.8107 51.435V63.0659H56.9185Z" fill="#DB3A00"/>
<path d="M93.3969 63.68C91.2345 63.68 89.2832 63.2386 87.5431 62.3557C85.8029 61.4601 84.421 60.2317 83.3974 58.6707C82.3738 57.0969 81.862 55.2864 81.862 53.2391C81.862 51.1919 82.3674 49.3878 83.3782 47.8267C84.4018 46.2529 85.7837 45.0246 87.5239 44.1417C89.2768 43.246 91.2345 42.7982 93.3969 42.7982C95.5721 42.7982 97.5297 43.246 99.2699 44.1417C101.01 45.0246 102.386 46.2529 103.396 47.8267C104.42 49.3878 104.932 51.1919 104.932 53.2391C104.932 55.2864 104.42 57.0969 103.396 58.6707C102.386 60.2317 101.01 61.4601 99.2699 62.3557C97.5297 63.2386 95.5721 63.68 93.3969 63.68ZM93.4161 58.6515C94.4141 58.6515 95.3226 58.4212 96.1415 57.9606C96.9604 57.4999 97.6065 56.8666 98.0799 56.0605C98.5534 55.2416 98.7901 54.3011 98.7901 53.2391C98.7901 52.1771 98.5534 51.2431 98.0799 50.437C97.6065 49.6181 96.9604 48.9783 96.1415 48.5177C95.3226 48.057 94.4141 47.8267 93.4161 47.8267C92.4052 47.8267 91.4904 48.057 90.6715 48.5177C89.8654 48.9783 89.2256 49.6181 88.7522 50.437C88.2788 51.2431 88.0421 52.1771 88.0421 53.2391C88.0421 54.3011 88.2788 55.2416 88.7522 56.0605C89.2256 56.8666 89.8654 57.4999 90.6715 57.9606C91.4904 58.4212 92.4052 58.6515 93.4161 58.6515Z" fill="#DB3A00"/>
<path d="M110.074 63.0659V43.4124H115.966V46.2337C116.695 45.1333 117.584 44.2888 118.634 43.7003C119.696 43.0989 120.834 42.7982 122.05 42.7982C122.741 42.7982 123.457 42.9006 124.2 43.1053C124.942 43.31 125.562 43.5723 126.061 43.8922L123.605 48.8631C123.17 48.5689 122.658 48.3385 122.069 48.1722C121.493 47.9931 120.956 47.9035 120.457 47.9035C119.689 47.9035 118.96 48.1018 118.269 48.4985C117.578 48.8951 117.021 49.4133 116.599 50.0531C116.177 50.6801 115.966 51.3582 115.966 52.0875V63.0659H110.074Z" fill="#DB3A00"/>
<path d="M137.237 63.68C135.433 63.68 133.789 63.2322 132.304 62.3365C130.833 61.4281 129.662 60.1869 128.792 58.6131C127.935 57.0265 127.506 55.2224 127.506 53.2007C127.506 51.2303 127.922 49.4645 128.754 47.9035C129.585 46.3297 130.731 45.0886 132.189 44.1801C133.661 43.2588 135.343 42.7982 137.237 42.7982C138.632 42.7982 139.93 43.0669 141.133 43.6043C142.349 44.1289 143.34 44.8646 144.108 45.8115V43.4124H150V63.0659H144.108V60.4748C143.212 61.5112 142.182 62.3045 141.018 62.8547C139.854 63.4049 138.593 63.68 137.237 63.68ZM138.983 58.6707C140.007 58.6707 140.916 58.4404 141.709 57.9797C142.502 57.5063 143.123 56.8602 143.571 56.0413C144.018 55.2224 144.242 54.2883 144.242 53.2391C144.242 52.1771 144.012 51.2431 143.551 50.437C143.104 49.6181 142.483 48.9783 141.69 48.5177C140.909 48.0443 140.007 47.8075 138.983 47.8075C137.973 47.8075 137.071 48.0443 136.277 48.5177C135.484 48.9783 134.857 49.6181 134.396 50.437C133.936 51.2559 133.705 52.1899 133.705 53.2391C133.705 54.2883 133.929 55.2224 134.377 56.0413C134.838 56.8602 135.465 57.5063 136.258 57.9797C137.051 58.4404 137.96 58.6707 138.983 58.6707Z" fill="#DB3A00"/>
<path d="M58.0869 27.2788L58.0869 27.2788L58.0909 27.2853C59.1534 29.037 60.6094 30.4229 62.4216 31.4282C64.265 32.4507 66.3165 32.9409 68.5248 32.9409C70.6646 32.9409 72.6642 32.4787 74.4806 31.5211C76.313 30.5613 77.7793 29.1944 78.8381 27.4394L79.9929 25.5253L78.0105 24.4923L76.5998 23.7571H77.515H79.1856L79.5612 22.1293C79.6036 21.9457 79.6447 21.7439 79.6692 21.5481C79.6962 21.332 79.703 21.112 79.703 20.9182C79.703 18.7771 79.2339 16.8004 78.2295 15.0549C77.2482 13.3291 75.8612 11.9757 74.108 11.0186C72.3427 10.0485 70.3422 9.59922 68.1729 9.59922C66.5803 9.59922 65.0566 9.8967 63.6229 10.5049L64.4431 12.4381L63.6229 10.5049C62.2131 11.103 60.9647 11.9484 59.892 13.0342C58.8212 14.1062 57.9857 15.3515 57.3902 16.7553C56.781 18.1912 56.4845 19.7211 56.4845 21.3228C56.4845 23.4817 57.008 25.4854 58.0869 27.2788ZM64.6849 23.9133C64.6552 23.8622 64.6265 23.8102 64.5989 23.7571H72.8867L72.8356 23.8282C72.2897 24.5889 71.6886 25.1051 71.0423 25.44C70.4024 25.7715 69.638 25.9611 68.7007 25.9611C67.7026 25.9611 66.8997 25.7579 66.2381 25.4069C65.5695 25.0345 65.063 24.543 64.6849 23.9133ZM70.2283 17.0412H66.0767C66.1205 17.0197 66.1653 16.9988 66.2108 16.9786L66.2109 16.9786L66.223 16.9731C66.7756 16.7233 67.4315 16.579 68.2257 16.579C68.9499 16.579 69.5566 16.7202 70.0809 16.9712L70.0968 16.9788L70.1129 16.9862C70.152 17.0041 70.1904 17.0225 70.2283 17.0412Z" fill="#1C1C1D" stroke="#F8F8F8" stroke-width="4.2"/>
<path fill-rule="evenodd" clip-rule="evenodd" d="M114 30.8413C112.334 30.8413 110.821 30.4308 109.461 29.6098C108.112 28.7887 107.039 27.6569 106.241 26.2142C105.455 24.7716 105.062 23.1237 105.062 21.2705C105.062 19.429 105.449 17.7928 106.223 16.3619C107.009 14.9192 108.077 13.7815 109.425 12.9488C110.786 12.116 112.334 11.6996 114.07 11.6996C115.571 11.6996 116.938 12.0398 118.169 12.7201C119.413 13.4003 120.398 14.3445 121.125 15.5526V0H124.538V30.2783H121.125V26.9004C120.351 28.1319 119.342 29.0996 118.099 29.8033C116.856 30.4953 115.489 30.8413 114 30.8413ZM114.915 27.9032C116.146 27.9032 117.237 27.6217 118.187 27.0587C119.137 26.484 119.882 25.6982 120.421 24.7012C120.961 23.7042 121.231 22.5665 121.231 21.2881C121.231 19.9979 120.961 18.8543 120.421 17.8573C119.882 16.8487 119.137 16.0628 118.187 15.4998C117.237 14.9251 116.152 14.6377 114.932 14.6377C113.712 14.6377 112.627 14.9251 111.677 15.4998C110.727 16.0628 109.977 16.8487 109.425 17.8573C108.886 18.8543 108.616 19.9979 108.616 21.2881C108.616 22.5665 108.886 23.7042 109.425 24.7012C109.965 25.6982 110.71 26.484 111.66 27.0587C112.61 27.6217 113.695 27.9032 114.915 27.9032Z" fill="#1C1C1D"/>
<path d="M83.2217 30.2783V12.2626H86.6348V14.585C87.1861 13.7639 87.9778 13.0778 89.0099 12.5265C90.0421 11.9753 91.2678 11.6996 92.687 11.6996C94.0827 11.6996 95.2908 11.9929 96.3112 12.5793C97.3316 13.154 98.1175 13.9868 98.6687 15.0776C99.2317 16.1684 99.5132 17.4703 99.5132 18.9833V30.2783H96.1001V19.6695C96.1001 17.9805 95.6954 16.6845 94.8861 15.7813C94.0768 14.8782 92.9391 14.4266 91.473 14.4266C90.4643 14.4266 89.5964 14.6319 88.8692 15.0424C88.1537 15.4412 87.6024 15.9807 87.2154 16.661C86.8283 17.3295 86.6348 18.0626 86.6348 18.8602V30.2783H83.2217Z" fill="#1C1C1D"/>
<path fill-rule="evenodd" clip-rule="evenodd" d="M134.82 29.6098C136.181 30.4308 137.699 30.8413 139.377 30.8413C140.866 30.8413 142.227 30.4953 143.458 29.8033C144.69 29.1113 145.699 28.1436 146.484 26.9004V30.2783H149.898V12.2626H146.484V15.5526C145.792 14.3445 144.813 13.4003 143.546 12.7201C142.291 12.0398 140.901 11.6996 139.377 11.6996C137.653 11.6996 136.116 12.116 134.767 12.9488C133.418 13.7815 132.357 14.9192 131.583 16.3619C130.809 17.7928 130.422 19.4232 130.422 21.2529C130.422 23.1061 130.815 24.754 131.6 26.1966C132.398 27.6393 133.471 28.777 134.82 29.6098ZM143.546 27.0587C142.608 27.6217 141.523 27.9032 140.292 27.9032C139.072 27.9032 137.987 27.6217 137.037 27.0587C136.087 26.484 135.336 25.6982 134.785 24.7012C134.245 23.6925 133.975 22.5489 133.975 21.2705C133.975 19.9803 134.245 18.8367 134.785 17.8398C135.336 16.8428 136.087 16.0628 137.037 15.4998C137.987 14.9251 139.072 14.6377 140.292 14.6377C141.523 14.6377 142.608 14.9251 143.546 15.4998C144.496 16.0628 145.241 16.8428 145.781 17.8398C146.32 18.8367 146.59 19.9803 146.59 21.2705C146.59 22.5607 146.32 23.7042 145.781 24.7012C145.241 25.6982 144.496 26.484 143.546 27.0587Z" fill="#1C1C1D"/>
<path d="M37.2239 63.5529C35.4198 63.5529 33.7756 63.1051 32.2914 62.2094C30.8199 61.3009 29.6492 60.0598 28.7791 58.486C27.9218 56.8994 27.4932 55.0952 27.4932 53.0736C27.4932 51.1031 27.909 49.3374 28.7407 47.7764C29.5724 46.2025 30.7176 44.9614 32.1762 44.053C33.6477 43.1317 35.3302 42.6711 37.2239 42.6711C38.6186 42.6711 39.9173 42.9398 41.1201 43.4772C42.3356 44.0018 43.3273 44.7375 44.095 45.6843V41.1094H49.9872V62.9387H44.095V60.3477C43.1993 61.3841 42.1693 62.1774 41.0049 62.7276C39.8406 63.2778 38.5802 63.5529 37.2239 63.5529ZM38.9705 58.5436C39.9941 58.5436 40.9026 58.3132 41.6959 57.8526C42.4892 57.3792 43.1097 56.733 43.5576 55.9141C44.0054 55.0952 44.2293 54.1612 44.2293 53.112C44.2293 52.05 43.999 51.1159 43.5384 50.3098C43.0906 49.4909 42.47 48.8512 41.6767 48.3905C40.8962 47.9171 39.9941 47.6804 38.9705 47.6804C37.9597 47.6804 37.0576 47.9171 36.2643 48.3905C35.471 48.8512 34.844 49.4909 34.3834 50.3098C33.9228 51.1287 33.6925 52.0628 33.6925 53.112C33.6925 54.1612 33.9164 55.0952 34.3642 55.9141C34.8248 56.733 35.4518 57.3792 36.2451 57.8526C37.0384 58.3132 37.9469 58.5436 38.9705 58.5436Z" fill="#DB3A00"/>
<path d="M49.9835 42.413C48.1496 43.2184 46.1571 43.6187 44.0913 43.7189V41.1094H49.9835V42.413Z" fill="#F5F5F5"/>
<path d="M32.6651 32.8124L30.8078 33.6892L31.6431 35.5656C32.5849 37.6808 34.0715 39.3317 36.0734 40.4504C38.0554 41.558 40.3883 42.0543 42.9741 42.0543C45.3296 42.0543 47.4687 41.6515 49.3141 40.7506C51.1628 39.8481 52.6199 38.5117 53.6141 36.7519C54.6151 35.0012 55.0672 32.9788 55.0672 30.7705V12.2622V10.1622H52.9672H49.554H47.454V10.7864C45.9293 9.98837 44.2652 9.59922 42.4991 9.59922C40.4205 9.59922 38.4929 10.1062 36.7757 11.1572L36.7757 11.1572L36.7688 11.1615C35.0986 12.1927 33.7814 13.604 32.8275 15.3538C31.852 17.1316 31.3912 19.1224 31.3912 21.2701C31.3912 23.4337 31.8597 25.4391 32.8497 27.2299C33.7193 28.8028 34.879 30.0989 36.3231 31.0856L35.4977 31.4753L32.6651 32.8124ZM42.4287 32.9409C44.1909 32.9409 45.8506 32.548 47.3706 31.7443C47.2784 32.2518 47.1143 32.6685 46.9012 33.0164L46.8961 33.0246L46.8912 33.0328C46.5365 33.6241 46.0555 34.0738 45.4041 34.4034L45.404 34.4034L45.3951 34.4079C44.7463 34.7401 43.9564 34.9338 42.9741 34.9338C41.8257 34.9338 40.8553 34.6777 40.0125 34.2021L40.0056 34.1982L39.9987 34.1944C39.1553 33.7267 38.6173 33.147 38.2842 32.4591L38.0942 32.0667C39.4441 32.6526 40.8964 32.9409 42.4287 32.9409ZM46.9985 18.8474L47.0054 18.8603L47.0125 18.8731C47.37 19.5197 47.5772 20.3051 47.5772 21.2876C47.5772 22.2623 47.3741 23.0487 47.021 23.7013C46.6596 24.3691 46.1742 24.8751 45.5421 25.2536C44.9531 25.6019 44.2413 25.8028 43.3435 25.8028C42.464 25.8028 41.7586 25.6048 41.1674 25.2565C40.5481 24.8799 40.0652 24.3738 39.7013 23.7013C39.3481 23.0487 39.1451 22.2623 39.1451 21.2876C39.1451 20.2996 39.3488 19.5093 39.6992 18.8602C40.077 18.1704 40.5661 17.668 41.1769 17.306L41.1851 17.3011L41.1933 17.2962C41.7837 16.9391 42.4855 16.7373 43.3611 16.7373C44.2367 16.7373 44.9386 16.9391 45.529 17.2962L45.5371 17.3011L45.5453 17.306C46.1531 17.6662 46.6332 18.1643 46.9985 18.8474Z" fill="#1C1C1D" stroke="#F8F8F8" stroke-width="4.2"/>
<path fill-rule="evenodd" clip-rule="evenodd" d="M8.57848 17.9148C8.58531 17.897 8.59215 17.8793 8.59899 17.8615L8.57848 17.9148Z" fill="#1C1C1D"/>
<path fill-rule="evenodd" clip-rule="evenodd" d="M33.0374 17.8944H33.0222L33.0374 17.8867C31.1934 18.0943 29.3495 18.3014 27.5055 18.5085L27.4861 18.5107C25.6368 18.7184 23.7875 18.9261 21.9382 19.1343C21.9382 19.1343 21.9382 19.1285 21.9363 19.1266L20.7797 16.1166C19.4057 12.5409 18.032 8.96583 16.6594 5.38962L15.1088 1.41267L14.9492 1H12.0114L0 31.7937H3.2394C5.00432 27.2051 6.76952 22.6168 8.53467 18.0287L8.55372 17.9792L8.57848 17.9148L8.59899 17.8615L9.8007 14.7379C11.0229 11.561 12.2451 8.38413 13.467 5.20728L13.5468 5.42033C15.3235 10.1036 17.1021 14.7869 18.8807 19.4683C18.8826 19.4702 18.8826 19.476 18.8826 19.476H18.8807L8.05328 20.6852C13.7178 25.6967 19.3824 30.7082 25.047 35.7178C25.87 36.4252 26.6926 37.1332 27.5151 37.8412L27.5211 37.8464C28.3412 38.5522 29.1613 39.2581 29.9818 39.9634C28.5947 36.403 27.2132 32.8387 25.8374 29.2725L25.8369 29.2711L25.8338 29.2631C25.0959 27.3468 24.3579 25.4306 23.6237 23.5143L27.865 20.9865L33.0374 17.8944ZM13.8965 22.547C16.9843 25.2782 20.0703 28.0076 23.1581 30.737C22.8058 29.8077 22.4531 28.8785 22.1004 27.9491C21.6124 26.6636 21.1239 25.3766 20.6365 24.0901C20.4638 23.6396 20.293 23.189 20.1221 22.7384L20.1216 22.737L21.9458 21.6468L21.9002 21.6525L19.7985 21.8867L13.8965 22.547Z" fill="#1C1C1D"/>
<path d="M23.1581 30.737C20.0703 28.0076 16.9843 25.2782 13.8965 22.547L19.7985 21.8867L21.9002 21.6525L21.9458 21.6468L20.1216 22.737L20.1221 22.7384C20.293 23.189 20.4638 23.6396 20.6365 24.0901C21.1239 25.3766 21.6124 26.6636 22.1004 27.9491C22.4531 28.8785 22.8058 29.8077 23.1581 30.737Z" fill="#4FD1C5"/>
</svg>
