<svg width="40" height="40" viewBox="0 0 40 40" fill="none" xmlns="http://www.w3.org/2000/svg">
<circle cx="19.998" cy="19.998" r="19.998" fill="white"/>
<path fill-rule="evenodd" clip-rule="evenodd" d="M6.67893 34.9325C6.69973 34.8807 6.72081 34.829 6.7422 34.7773C7.49602 32.9574 8.60091 31.3039 9.99379 29.911C11.3867 28.5181 13.0403 27.4132 14.8601 26.6594C16.68 25.9056 18.6306 25.5176 20.6004 25.5176C22.5702 25.5176 24.5208 25.9056 26.3406 26.6594C28.1605 27.4132 29.8141 28.5181 31.207 29.911C32.4324 31.1364 33.4349 32.5636 34.1716 34.1284C35.9614 32.333 37.3792 30.2236 38.425 27.8C39.475 25.3667 40 22.7667 40 20C40 17.2333 39.475 14.6333 38.425 12.2C37.375 9.76667 35.95 7.65 34.15 5.85C32.35 4.05 30.2333 2.625 27.8 1.575C25.3667 0.525 22.7667 0 20 0C17.2333 0 14.6333 0.525 12.2 1.575C9.76667 2.625 7.65 4.05 5.85 5.85C4.05 7.65 2.625 9.76667 1.575 12.2C0.525 14.6333 0 17.2333 0 20C0 22.7667 0.525 25.3667 1.575 27.8C2.625 30.2333 4.05 32.35 5.85 34.15C6.11923 34.4192 6.39554 34.6801 6.67893 34.9325ZM20 22C18.0333 22 16.375 21.325 15.025 19.975C13.675 18.625 13 16.9667 13 15C13 13.0333 13.675 11.375 15.025 10.025C16.375 8.675 18.0333 8 20 8C21.9667 8 23.625 8.675 24.975 10.025C26.325 11.375 27 13.0333 27 15C27 16.9667 26.325 18.625 24.975 19.975C23.625 21.325 21.9667 22 20 22Z" fill="#4FD1C5"/>
</svg>
