<svg width="1440" height="1241" viewBox="0 0 1440 1241" fill="none" xmlns="http://www.w3.org/2000/svg">
<path d="M2613.58 317.751C2611.77 316.951 2429.29 237.761 2139.32 230.298C1871.72 223.408 1455.23 277.935 990.817 576.877C785.525 709.017 582.679 799.703 387.899 846.418C232.061 883.79 81.0078 893.263 -61.0562 874.558C-302.998 842.714 -436.726 738.667 -438.051 737.615L-436.717 734.952C-435.398 735.999 -301.981 839.765 -60.4817 871.52C162.416 900.832 525.591 873.033 989.937 574.138C1195.22 442.01 1408.36 346.146 1623.44 289.223C1795.51 243.69 1969.19 222.832 2139.66 227.228C2429.95 234.725 2612.68 314.028 2614.5 314.832L2613.58 317.751Z" fill="#C8F1ED"/>
<path d="M2603.74 301.927C2601.92 301.193 2417.75 228.808 2126.5 228.51C1857.71 228.24 1440.15 291.066 977.316 591.968C776.677 722.411 578.452 812.861 388.149 860.813C234.936 899.413 86.2664 910.754 -53.7215 894.513C-284.617 867.725 -418.453 774.83 -442.934 756.48C-443.295 756.207 -443.512 756.043 -443.59 755.999L-443.029 754.712L-443.329 753.253C-442.826 753.02 -442.676 753.134 -441.691 753.874C-417.271 772.179 -283.779 864.823 -53.324 891.565C264.765 928.468 611.235 826.786 976.466 589.347C1181.04 456.346 1393.92 358.33 1609.2 298.014C1781.43 249.758 1955.57 225.378 2126.79 225.559C2418.35 225.857 2602.74 298.354 2604.57 299.085L2603.74 301.927Z" fill="#C8F1ED"/>
<path d="M2593.9 286.096C2592.06 285.43 2406.22 219.841 2113.68 226.721C1843.71 233.07 1425.06 304.207 963.823 607.056C765.459 737.305 569.592 828.05 381.667 876.781C229.998 916.103 82.8224 928.367 -55.7688 913.218C-279.122 888.803 -412.341 801.466 -447.851 775.28C-448.59 774.734 -449.025 774.407 -449.169 774.32L-448.675 773.094L-448.973 771.648C-448.641 771.495 -447.872 771.865 -446.665 772.759C-411.243 798.883 -278.342 886.008 -55.3953 910.376C258.952 944.734 601.594 841.838 962.998 604.526C1166.85 470.675 1379.48 370.494 1594.97 306.771C1767.36 255.793 1941.96 227.892 2113.92 223.859C2406.74 216.996 2592.8 282.681 2594.65 283.344L2593.91 286.1L2593.9 286.096Z" fill="#C8F1ED"/>
<path d="M2584.06 270.272C2582.21 269.679 2394.68 210.881 2100.86 224.933C1829.7 237.902 1409.97 317.341 950.322 622.16C753.835 752.459 559.941 843.582 374.033 893.015C223.72 932.98 77.879 946.004 -59.4255 931.72C-281.09 908.672 -416.562 820.522 -452.802 794.05C-453.911 793.243 -454.568 792.755 -454.77 792.643L-454.337 791.482L-454.631 790.056C-454.295 789.901 -453.306 790.424 -451.665 791.626C-415.513 818.028 -280.347 905.975 -59.076 928.985C251.952 961.335 591.297 857.273 949.517 619.731C1152.65 485.024 1365.02 382.683 1580.72 315.555C1753.28 261.852 1928.35 230.439 2101.05 222.19C2395.13 208.145 2582.86 267.014 2584.73 267.605L2584.06 270.274L2584.06 270.272Z" fill="#C8F1ED"/>
<path d="M2574.22 254.444C2572.34 253.919 2383.13 201.92 2088.03 223.15C1815.67 242.741 1394.87 330.491 936.811 637.256C823.053 713.439 715.45 773.027 614.406 818.928C-4.02466 1099.84 -379.752 869.431 -457.769 812.815C-459.112 811.845 -460.166 811.078 -460.384 810.966L-460.001 809.872L-460.291 808.466C-459.951 808.31 -458.748 808.983 -456.681 810.486C-366.064 876.236 126.959 1176.77 936.034 634.932C1138.46 499.368 1350.57 394.865 1566.47 324.341C1739.19 267.922 1914.72 232.988 2088.17 220.516C2383.52 199.284 2572.93 251.339 2574.81 251.862L2574.22 254.444Z" fill="#C8F1ED"/>
<path d="M2564.38 238.606C2562.49 238.147 2371.59 192.955 2075.2 221.357C1801.66 247.569 1379.78 343.615 923.308 652.347C730.032 783.067 539.57 875.068 357.213 925.792C209.353 966.925 65.9767 981.267 -68.9323 968.434C-281.328 948.221 -415.094 865.977 -462.743 831.559C-464.409 830.357 -465.726 829.403 -465.991 829.284L-465.657 828.257L-465.941 826.878C-465.592 826.717 -464.179 827.532 -461.704 829.326C-414.151 863.671 -280.661 945.742 -68.6226 965.923C236.349 994.943 569.827 888.694 922.558 650.127C1124.27 513.704 1336.12 407.041 1552.23 333.115C1725.12 273.972 1901.1 235.521 2075.31 218.837C2371.92 190.421 2562.99 235.669 2564.88 236.129L2564.37 238.609L2564.38 238.606Z" fill="#C8F1ED"/>
<path d="M2554.53 222.773C2552.62 222.382 2360.05 183.984 2062.37 219.564C1787.65 252.402 1364.68 356.759 909.808 667.437C717.98 798.464 529.072 890.926 348.343 942.276C201.634 983.955 59.4229 998.902 -74.3414 986.692C-277.57 968.151 -408.046 893.265 -467.729 850.281C-469.719 848.847 -471.29 847.718 -471.598 847.589L-471.311 846.635L-471.59 845.283C-471.23 845.116 -469.613 846.07 -466.739 848.144C-407.172 891.042 -276.95 965.781 -74.0545 984.293C228.072 1011.86 558.843 904.536 909.08 665.325C1110.07 528.038 1321.68 419.224 1537.99 341.892C1711.04 280.023 1887.49 238.058 2062.43 217.153C2360.32 181.564 2553.06 220.001 2554.97 220.392L2554.52 222.776L2554.53 222.773Z" fill="#C8F1ED"/>
<path d="M2544.68 206.942C2542.75 206.616 2348.49 175.026 2049.54 217.775C1773.63 257.239 1349.59 369.896 896.302 682.538C705.842 813.907 518.417 906.85 339.248 958.799C193.649 1001.01 52.5714 1016.53 -80.0694 1004.92C-229.569 991.831 -369.024 943.556 -472.743 868.993C-475.049 867.332 -476.869 866.025 -477.225 865.889L-476.975 865.01L-477.248 863.685C-476.884 863.517 -475.065 864.604 -471.791 866.948C-368.274 941.369 -229.055 989.555 -79.7906 1002.62C219.564 1028.83 547.732 920.45 895.604 680.515C1095.88 542.378 1307.22 431.398 1523.75 350.664C1696.97 286.08 1873.88 240.594 2049.57 215.473C2348.71 172.702 2543.13 204.329 2545.06 204.655L2544.68 206.939L2544.68 206.942Z" fill="#C8F1ED"/>
<path d="M2534.83 191.107C2532.89 190.847 2336.95 166.055 2036.71 215.992C1759.61 262.069 1334.49 383.034 882.804 697.636C693.66 829.372 507.67 922.81 330.002 975.355C185.488 1018.09 45.5174 1034.16 -86.0133 1023.12C-234.401 1010.66 -373.52 962.566 -477.752 887.712C-480.374 885.83 -482.444 884.345 -482.84 884.205L-482.633 883.398L-482.9 882.099C-482.339 881.84 -482.167 881.951 -476.855 885.765C-372.816 960.488 -233.922 1008.49 -85.7626 1020.93C210.889 1045.84 536.535 936.427 882.128 695.72C1081.69 556.726 1292.76 443.589 1509.51 359.455C1682.89 292.148 1860.27 243.147 2036.7 213.81C2337.12 163.852 2533.2 188.672 2535.15 188.923L2534.83 191.107Z" fill="#C8F1ED"/>
<path d="M2524.98 175.271C2523.01 175.085 2325.39 157.09 2023.87 214.198C1745.59 266.902 1319.39 396.175 869.297 712.73C681.42 844.87 496.811 938.798 320.603 991.93C177.146 1035.18 38.2685 1051.78 -92.1801 1041.28C-239.461 1029.42 -378.179 981.518 -482.793 906.4C-485.72 904.293 -488.032 902.634 -488.472 902.507L-488.302 901.769L-488.563 900.503C-487.986 900.237 -487.677 900.431 -481.939 904.553C-357.127 994.179 109.124 1245.07 868.641 710.914C1067.49 571.061 1278.32 455.763 1495.26 368.225C1668.82 298.194 1846.65 245.674 2023.83 212.127C2325.52 154.993 2523.27 173.009 2525.24 173.192L2524.98 175.268L2524.98 175.271Z" fill="#C8F1ED"/>
<path d="M2515.13 159.431C2513.15 159.311 2313.84 148.123 2011.04 212.407C1731.58 271.729 1304.29 409.313 855.794 727.829C669.14 860.386 485.878 954.829 311.09 1008.53C168.675 1052.28 30.8648 1069.41 -98.5071 1059.42C-246.806 1047.98 -381.429 1001.53 -487.83 925.094C-491.066 922.77 -493.615 920.935 -494.094 920.812L-493.956 920.146L-494.21 918.915C-493.617 918.641 -493.214 918.894 -487.02 923.341C-380.793 999.649 -246.371 1046.02 -98.282 1057.45C193.132 1079.94 513.919 968.461 855.175 726.106C1053.31 585.395 1263.88 467.953 1481.04 377.001C1654.76 304.251 1833.05 248.213 2010.98 210.447C2313.93 146.141 2513.35 157.34 2515.33 157.46L2515.13 159.431Z" fill="#C8F1ED"/>
<path d="M2505.27 143.596C2503.28 143.542 2302.29 139.152 1998.2 210.614C1717.55 276.569 1289.19 422.452 842.292 742.922C656.83 875.91 474.874 970.864 301.479 1025.14C160.085 1069.39 23.3324 1087.03 -104.983 1077.54C-207.618 1069.95 -358.231 1040.58 -492.881 943.767C-496.414 941.228 -499.206 939.219 -499.722 939.112L-499.609 938.518L-499.856 937.319C-499.247 937.038 -498.667 937.4 -492.113 942.114C-357.672 1038.78 -207.269 1068.1 -104.768 1075.68C184.086 1097.03 502.53 984.527 841.711 741.299C1039.14 599.728 1249.46 480.128 1466.81 385.772C1640.69 310.3 1819.46 250.751 1998.12 208.765C2302.33 137.29 2503.43 141.683 2505.43 141.734L2505.27 143.603L2505.27 143.596Z" fill="#C8F1ED"/>
<path d="M2495.41 127.755C2493.39 127.769 2290.73 130.189 1985.35 208.822C1703.52 281.393 1274.09 435.586 828.781 758.017C644.481 891.459 463.803 986.928 291.769 1041.76C151.38 1086.51 15.6707 1104.64 -111.591 1095.64C-213.457 1088.44 -363.175 1059.48 -497.959 962.435C-501.789 959.682 -504.811 957.501 -505.364 957.411L-505.282 956.89L-505.522 955.725C-504.872 955.424 -503.977 956.03 -497.24 960.878C-362.664 1057.78 -213.143 1086.7 -111.406 1093.89C174.928 1114.13 491.068 1000.62 828.215 756.497C1021.06 616.868 1226.75 497.079 1439.75 400.341C1444.02 398.403 1448.28 396.477 1452.55 394.553C1626.61 316.363 1805.83 253.289 1985.24 207.091C2290.74 128.429 2493.51 126.014 2495.52 126L2495.41 127.752L2495.41 127.755Z" fill="#C8F1ED"/>
<path d="M2485.55 111.914C2483.52 111.993 2279.17 121.219 1972.52 207.028C1689.5 286.229 1259 448.724 815.284 773.108C632.118 907.015 452.69 1003 281.994 1058.39C142.595 1103.62 7.9177 1122.24 -118.304 1113.72C-212.279 1107.37 -300.791 1086.18 -381.386 1050.72C-445.747 1022.42 -485.889 993.453 -503.031 981.088C-507.153 978.118 -510.412 975.767 -510.994 975.699L-511.16 974.118C-510.488 973.808 -509.427 974.527 -502.35 979.63C-375.631 1071.04 -61.4877 1223.37 436.424 997.232C552.575 944.479 678.636 871.195 814.754 771.681C1010.75 628.395 1220.56 504.457 1438.33 403.32C1612.54 322.381 1792.24 255.817 1972.4 205.403C2279.16 119.565 2483.6 110.344 2485.63 110.264L2485.55 111.904L2485.55 111.914Z" fill="#C8F1ED"/>
<path d="M2475.68 96.0727C2473.64 96.2183 2267.61 112.242 1959.68 205.236C1675.48 291.061 1243.9 461.862 801.78 788.202C619.724 922.585 441.527 1019.09 272.147 1075.03C133.727 1120.75 0.0663296 1139.85 -125.123 1131.79C-218.443 1125.78 -306.351 1104.87 -386.412 1069.63C-450.45 1041.44 -490.863 1012.23 -508.115 999.753C-512.528 996.566 -516.011 994.047 -516.634 994.005L-516.816 992.535C-516.119 992.213 -514.877 993.054 -507.486 998.4C-382.163 1089 -72.3175 1239.43 418.523 1016.49C535.814 963.22 663.354 888.695 801.279 786.886C996.567 642.74 1206.11 516.643 1424.1 412.099C1598.49 328.462 1778.64 258.365 1959.55 203.735C2267.57 110.719 2473.68 94.6954 2475.73 94.5432L2475.69 96.0793L2475.68 96.0727Z" fill="#C8F1ED"/>
<path d="M401.499 1036.54C354.477 1057.9 308.017 1076.3 262.217 1091.69C124.763 1137.89 -7.88707 1157.46 -132.053 1149.85C-224.718 1144.18 -312.018 1123.54 -391.534 1088.5C-455.235 1060.44 -495.876 1030.98 -513.228 1018.4C-517.928 1015 -521.64 1012.31 -522.285 1012.3L-522.475 1010.94C-521.746 1010.6 -520.322 1011.57 -512.638 1017.14C-388.724 1106.95 -83.1803 1255.52 400.687 1035.75C519.09 981.973 648.076 906.215 787.797 802.081C982.368 657.072 1191.66 528.823 1409.86 420.876C1584.41 334.524 1765.03 260.903 1946.68 202.057C2255.98 101.861 2463.76 79.0304 2465.82 78.8101L2465.81 80.2308C2463.75 80.4511 2256.04 103.271 1946.82 203.443C1661.44 295.891 1228.78 475.005 788.261 803.303C656.6 901.424 527.049 979.511 401.492 1036.54L401.499 1036.54Z" fill="#C8F1ED"/>
<path d="M382.789 1056.29C338.734 1076.3 295.196 1093.66 252.25 1108.34C115.755 1155.02 -15.8964 1175.05 -139.045 1167.89C-231.052 1162.55 -317.741 1142.17 -396.712 1107.35C-460.067 1079.41 -500.897 1049.72 -518.339 1037.05C-523.325 1033.42 -527.257 1030.56 -527.933 1030.61L-528.127 1029.35C-527.335 1028.99 -525.33 1030.41 -517.792 1035.89C-395.302 1124.92 -94.054 1271.65 382.929 1055.01C502.409 1000.75 632.821 923.745 774.329 817.273C968.19 671.412 1177.23 540.995 1395.63 429.652C1570.34 340.577 1751.43 263.435 1933.83 200.377C2244.4 93.0013 2453.86 63.37 2455.93 63.0841L2455.95 64.3891C2453.87 64.6776 2244.48 94.3066 1933.98 201.65C1830.44 237.452 1707.61 284.813 1572.34 346.253C1333.23 454.856 1055.09 607.479 774.763 818.4C641.181 918.905 509.853 998.576 382.789 1056.29Z" fill="#C8F1ED"/>
<path d="M364.202 1076.02C323.046 1094.71 282.388 1111.05 242.228 1125.01C106.679 1172.16 -23.9815 1192.65 -146.122 1185.93C-237.471 1180.9 -323.548 1160.79 -401.96 1126.17C-464.952 1098.35 -505.953 1068.45 -523.464 1055.69C-528.939 1051.7 -532.893 1048.82 -533.587 1048.9L-533.783 1047.76C-532.96 1047.38 -530.692 1048.99 -522.96 1054.62C-370.871 1165.52 58.6809 1365.86 760.85 832.466C953.999 685.746 1162.78 553.167 1381.4 438.426C1556.28 346.624 1737.83 265.97 1920.98 198.702C2232.82 84.153 2443.95 47.7148 2446.04 47.3564L2446.08 48.555C2443.98 48.9091 2232.91 85.3432 1921.13 199.87C1633.38 305.57 1198.58 501.303 761.253 833.504C625.794 936.41 492.717 1017.65 364.198 1076.03L364.202 1076.02Z" fill="#C8F1ED"/>
<path d="M345.727 1095.74C307.424 1113.14 269.565 1128.46 232.156 1141.69C97.5423 1189.31 -32.129 1210.25 -153.267 1203.96C-243.96 1199.25 -329.414 1179.4 -407.264 1144.97C-469.892 1117.27 -511.025 1087.18 -528.589 1074.33C-534.359 1070.11 -538.532 1067.06 -539.241 1067.21L-539.432 1066.17C-538.572 1065.77 -536.202 1067.46 -528.133 1073.36C-377.15 1183.83 49.3838 1382.96 747.382 847.665C939.821 700.086 1148.35 565.351 1367.18 447.205C1542.24 352.689 1724.24 268.517 1908.14 197.023C2221.25 75.3036 2434.05 32.0558 2436.16 31.6293L2436.21 32.7129C2434.1 33.1327 2221.35 76.3722 1908.29 198.077C1619.35 310.408 1183.48 514.44 747.753 848.601C610.429 953.915 475.664 1036.72 345.727 1095.74Z" fill="#C8F1ED"/>
<path d="M327.369 1115.44C291.871 1131.57 256.745 1145.88 222.037 1158.37C88.3523 1206.45 -40.3473 1227.85 -160.485 1221.98C-250.516 1217.58 -335.354 1197.99 -412.635 1163.76C-474.886 1136.19 -514.633 1107 -533.737 1092.97C-539.808 1088.51 -544.187 1085.29 -544.906 1085.52L-545.086 1084.59C-544.184 1084.17 -541.54 1086.07 -533.324 1092.11C-383.46 1202.16 40.0239 1400.11 733.905 862.875C925.632 714.437 1133.9 577.54 1352.94 455.991C1528.16 358.753 1710.63 271.066 1895.28 195.36C2209.66 66.4607 2424.14 16.4126 2426.26 15.9205L2426.32 16.8891C2424.2 17.3813 2209.76 67.4192 1895.42 196.306C1843.17 217.729 1786.09 242.211 1725.19 269.87C1447.94 395.791 1090.17 588.14 734.238 863.711C595.082 971.449 458.674 1055.82 327.36 1115.45L327.369 1115.44Z" fill="#C8F1ED"/>
<path d="M309.124 1135.14C276.357 1150.02 243.951 1163.32 211.879 1175.05C79.1178 1223.6 -48.6062 1245.44 -167.757 1239.98C-257.133 1235.89 -341.345 1216.55 -418.052 1182.51C-479.917 1155.06 -519.745 1125.7 -538.884 1111.59C-545.257 1106.89 -549.861 1103.5 -550.573 1103.81L-550.743 1102.98C-549.798 1102.55 -546.865 1104.66 -538.522 1110.81C-389.794 1220.45 30.6075 1417.24 720.433 878.051C911.444 728.756 1119.46 589.701 1338.71 464.748C1514.11 364.792 1697.05 273.592 1882.44 193.659C2198.09 57.586 2414.24 0.730978 2416.38 0.170826L2416.46 1.03112C2414.31 1.59139 2198.2 58.432 1882.58 194.495C1852.98 207.257 1821.82 221.016 1789.35 235.766C1502.28 366.147 1109.31 575.076 720.735 878.792C579.787 988.956 441.749 1074.89 309.123 1135.13L309.124 1135.14Z" fill="#C8F1ED"/>
</svg>
