<?xml version="1.0" encoding="UTF-8"?>
<svg id="Capa_1" xmlns="http://www.w3.org/2000/svg" version="1.1" viewBox="0 0 792 612">
  <!-- Generator: Adobe Illustrator 29.4.0, SVG Export Plug-In . SVG Version: 2.1.0 Build 2)  -->
  <defs>
    <style>
      .st0 {
        fill: #fff;
      }

      .st1 {
        opacity: .6;
      }
    </style>
  </defs>
  <g class="st1">
    <path class="st0" d="M520.72,341.57c-10.1,19.33-24.85,34.94-44.3,46.86,7.83,4.82,16.14,8.77,24.9,11.83,17.06-12.6,30.64-28.08,40.76-46.42l-21.37-12.27Z"/>
    <path class="st0" d="M476.64,415.28c-22.07,10.87-46.04,16.3-71.85,16.3-40.71,0-75.37-11.43-104.02-34.31-5.07-4.03-9.95-8.44-14.64-13.19-.84-.84-1.64-1.69-2.45-2.55-29.59-31.19-44.38-69.21-44.38-114.07s14.79-82.87,44.38-114.05c6.23,4.56,12.09,9.84,17.6,15.79-25.25,26.76-37.88,59.53-37.88,98.26s12.62,71.5,37.86,98.26c.63.67,1.27,1.33,1.91,1.99,4.82,4.92,9.87,9.39,15.17,13.41,23.9,18.19,52.72,27.29,86.45,27.29,16.63,0,32.35-2.71,47.22-8.14,7.78,5.81,15.99,10.82,24.62,15.02Z"/>
    <path class="st0" d="M541.18,179.72l-21.37,12.27c-10.02-18.59-24.49-33.75-43.44-45.46-1.12-.69-2.24-1.38-3.39-2.04-6.74-3.91-13.72-7.2-20.92-9.84-14.8-5.41-30.56-8.13-47.27-8.13-33.75,0-62.57,9.1-86.47,27.27-5.56-5.97-11.42-11.35-17.55-16.14,28.65-22.88,63.31-34.31,104.02-34.31,25.86,0,49.77,5.44,71.81,16.32,2.76,1.37,5.51,2.81,8.21,4.36,5.77,3.29,11.25,6.84,16.4,10.69,16.48,12.22,29.8,27.22,39.97,45Z"/>
  </g>
  <g>
    <path class="st0" d="M361.48,267.46c0,44.56-14.18,82.23-42.5,112.98-.21.23-.43.46-.64.67-5.3-4.01-10.35-8.49-15.17-13.41-.64-.66-1.28-1.32-1.91-1.99.39-.39.76-.79,1.12-1.2,23.64-26.2,35.46-58.56,35.46-97.06s-11.83-70.84-35.46-97.06c-.36-.41-.72-.81-1.1-1.2-5.51-5.95-11.37-11.23-17.6-15.79-20.3-14.89-44.36-22.34-72.23-22.34h-95.47v272.78h95.47c27.86,0,51.93-7.43,72.23-22.32.81.86,1.61,1.71,2.45,2.55,4.69,4.75,9.57,9.16,14.64,13.19-25.02,19.54-54.77,29.31-89.31,29.31h-119.56V108.35h119.56c34.54,0,64.3,9.77,89.31,29.31,6.14,4.79,11.99,10.17,17.55,16.14.23.23.44.46.66.69,28.32,30.76,42.5,68.43,42.5,112.97Z"/>
    <path class="st0" d="M632.22,124.03c-24.24-13.78-50.92-20.68-80.02-20.68s-53.26,5.44-75.6,16.32c2.76,1.37,5.51,2.81,8.21,4.36,5.77,3.29,11.25,6.84,16.4,10.69,15.53-5.48,32.52-8.19,50.99-8.19,24.85,0,47.59,5.99,68.2,17.96,20.61,11.97,36.22,27.81,46.83,47.5l21.37-12.27c-13.34-23.34-32.12-41.89-56.37-55.69Z"/>
    <path class="st0" d="M689.49,353.84c-13.03,23.64-31.81,42.5-56.37,56.6-24.54,14.1-51.53,21.14-80.93,21.14s-53.23-5.43-75.56-16.3c-8.64-4.19-16.84-9.21-24.62-15.02-6.45-4.85-12.62-10.23-18.47-16.19-31.22-31.66-46.81-70.53-46.81-116.62s15.59-84.94,46.81-116.6c5.87-5.95,12.06-11.37,18.52-16.2,7.2,2.63,14.18,5.92,20.92,9.84,1.15.66,2.27,1.35,3.39,2.04-9.24,5.67-17.85,12.57-25.77,20.69-26.53,27.12-39.79,60.55-39.79,100.24s13.26,73.13,39.79,100.25c7.94,8.13,16.56,15.03,25.82,20.72,7.83,4.82,16.14,8.77,24.9,11.83,15.49,5.43,32.45,8.14,50.87,8.14,24.85,0,47.73-6.07,68.66-18.19,20.91-12.12,36.66-28.34,47.27-48.64l21.37,12.27Z"/>
  </g>
  <g class="st1">
    <path class="st0" d="M37.62,507.76h-2.19v-41.19h2.37l14.38,25.39,14.32-25.39h2.19v41.19h-2.19v-36.81l-13.32,23.49h-2.07l-13.49-23.79v37.11Z"/>
    <path class="st0" d="M81.65,466.57h29v2.19h-26.81v16.69h23.32v2.19h-23.32v17.93h26.81v2.19h-29v-41.19Z"/>
    <path class="st0" d="M147.55,468.82c2.55,1.5,4.57,3.52,6.07,6.07,1.5,2.54,2.25,5.32,2.25,8.31v7.93c0,3-.75,5.77-2.25,8.31-1.5,2.54-3.52,4.57-6.07,6.07-2.54,1.5-5.32,2.25-8.31,2.25h-15.21v-41.19h15.21c3,0,5.77.75,8.31,2.25ZM153.68,483.2c0-2.6-.65-5.01-1.95-7.22-1.3-2.21-3.07-3.97-5.3-5.27-2.23-1.3-4.65-1.95-7.25-1.95h-12.96v36.81h12.96c2.6,0,5.02-.65,7.25-1.95,2.23-1.3,4-3.06,5.3-5.27,1.3-2.21,1.95-4.62,1.95-7.22v-7.93Z"/>
    <path class="st0" d="M196.82,466.57v2.19h-12.31v36.81h12.31v2.19h-26.69v-2.19h12.25v-36.81h-12.25v-2.19h26.69Z"/>
    <path class="st0" d="M215.08,499.24c1.32,2.21,3.1,3.97,5.33,5.27,2.23,1.3,4.65,1.95,7.25,1.95s5.11-.53,7.28-1.6c2.17-1.07,3.88-2.54,5.12-4.44,1.24-1.89,1.88-4.02,1.92-6.39h2.13c0,2.72-.72,5.2-2.16,7.43-1.44,2.23-3.42,3.99-5.92,5.27-2.5,1.28-5.3,1.92-8.37,1.92s-5.78-.75-8.35-2.25c-2.56-1.5-4.6-3.52-6.09-6.07-1.5-2.54-2.25-5.32-2.25-8.31v-9.71c0-3,.74-5.77,2.22-8.31,1.48-2.54,3.49-4.57,6.04-6.07,2.54-1.5,5.32-2.25,8.31-2.25s5.81.64,8.32,1.92c2.5,1.28,4.49,3.04,5.95,5.27,1.46,2.23,2.19,4.7,2.19,7.43h-2.13c-.04-2.37-.69-4.5-1.95-6.39s-2.97-3.37-5.12-4.44c-2.15-1.06-4.57-1.6-7.25-1.6s-5.01.65-7.22,1.95c-2.21,1.3-3.97,3.06-5.27,5.27-1.3,2.21-1.95,4.62-1.95,7.22v9.71c0,2.6.66,5.01,1.98,7.22Z"/>
    <path class="st0" d="M284.41,466.57v2.19h-12.31v36.81h12.31v2.19h-26.69v-2.19h12.25v-36.81h-12.25v-2.19h26.69Z"/>
    <path class="st0" d="M298.73,507.76v-41.19h2.31l28.76,27.93v-27.93h2.19v41.19h-2.19v-10.18l-28.88-28.17v38.35h-2.19Z"/>
    <path class="st0" d="M357.5,466.57h2.31l16.93,41.19h-2.37l-5.56-13.61h-20.3l-5.62,13.61h-2.31l16.93-41.19ZM349.39,492.02h18.52l-9.29-22.61-9.23,22.61Z"/>
    <path class="st0" d="M432.01,466.57h29v2.19h-26.81v16.69h23.32v2.19h-23.32v17.93h26.81v2.19h-29v-41.19Z"/>
    <path class="st0" d="M482.7,485.83c-2.11-.81-3.77-1.91-4.97-3.31-1.21-1.4-1.81-3.2-1.81-5.41s.6-4.3,1.81-6.04c1.2-1.74,2.9-3.08,5.09-4.03,2.19-.95,4.72-1.42,7.6-1.42s5.3.58,7.6,1.75c2.31,1.17,4.13,2.79,5.47,4.88,1.34,2.09,2.01,4.48,2.01,7.16h-2.19c0-2.33-.57-4.38-1.72-6.15-1.15-1.78-2.7-3.15-4.68-4.11-1.97-.96-4.16-1.45-6.57-1.45-2.13,0-4.12.33-5.98,1-1.86.67-3.36,1.7-4.53,3.08-1.17,1.38-1.75,3.12-1.75,5.21,0,1.89.55,3.4,1.66,4.53,1.1,1.13,2.54,1.98,4.32,2.57,1.78.59,4.26,1.23,7.46,1.89,3.23.67,5.75,1.31,7.55,1.92,1.79.61,3.31,1.63,4.56,3.05,1.24,1.42,1.87,3.41,1.87,5.98s-.68,4.72-2.04,6.48c-1.36,1.76-3.16,3.07-5.41,3.94-2.25.87-4.69,1.3-7.34,1.3-3.27,0-6.15-.61-8.64-1.84-2.49-1.22-4.39-2.95-5.71-5.18-1.32-2.23-1.98-4.78-1.98-7.66h2.19c0,2.52.56,4.73,1.69,6.63,1.13,1.89,2.75,3.36,4.88,4.41,2.13,1.05,4.66,1.57,7.57,1.57,3.63,0,6.64-.87,9.03-2.6,2.39-1.74,3.58-4.1,3.58-7.1,0-2.05-.51-3.63-1.54-4.73-1.02-1.1-2.32-1.9-3.88-2.4-1.56-.49-3.9-1.05-7.01-1.69-3.35-.67-6.09-1.41-8.2-2.22Z"/>
    <path class="st0" d="M550.44,466.57v2.19h-15.57v39h-2.13v-39h-15.56v-2.19h33.26Z"/>
    <path class="st0" d="M563.4,466.57h29v2.19h-26.81v16.69h23.32v2.19h-23.32v17.93h26.81v2.19h-29v-41.19ZM581.8,453.79l2.07,2.66-10.24,7.46-1.12-1.48,9.29-8.64Z"/>
    <path class="st0" d="M638.03,466.57v2.19h-15.57v39h-2.13v-39h-15.56v-2.19h33.26Z"/>
    <path class="st0" d="M678.57,466.57v2.19h-12.31v36.81h12.31v2.19h-26.69v-2.19h12.25v-36.81h-12.25v-2.19h26.69Z"/>
    <path class="st0" d="M696.82,499.24c1.32,2.21,3.1,3.97,5.33,5.27,2.23,1.3,4.65,1.95,7.25,1.95s5.11-.53,7.28-1.6c2.17-1.07,3.88-2.54,5.12-4.44,1.24-1.89,1.88-4.02,1.92-6.39h2.13c0,2.72-.72,5.2-2.16,7.43-1.44,2.23-3.42,3.99-5.92,5.27-2.5,1.28-5.3,1.92-8.37,1.92s-5.78-.75-8.35-2.25c-2.56-1.5-4.6-3.52-6.09-6.07-1.5-2.54-2.25-5.32-2.25-8.31v-9.71c0-3,.74-5.77,2.22-8.31,1.48-2.54,3.49-4.57,6.04-6.07,2.54-1.5,5.32-2.25,8.31-2.25s5.81.64,8.32,1.92c2.5,1.28,4.49,3.04,5.95,5.27,1.46,2.23,2.19,4.7,2.19,7.43h-2.13c-.04-2.37-.69-4.5-1.95-6.39-1.26-1.89-2.97-3.37-5.12-4.44-2.15-1.06-4.57-1.6-7.25-1.6s-5.01.65-7.22,1.95c-2.21,1.3-3.97,3.06-5.27,5.27-1.3,2.21-1.95,4.62-1.95,7.22v9.71c0,2.6.66,5.01,1.98,7.22Z"/>
    <path class="st0" d="M751.66,466.57h2.31l16.93,41.19h-2.37l-5.56-13.61h-20.3l-5.62,13.61h-2.31l16.93-41.19ZM743.55,492.02h18.52l-9.29-22.61-9.23,22.61Z"/>
  </g>
</svg>