<?xml version="1.0" encoding="UTF-8"?>
<svg id="Capa_1" xmlns="http://www.w3.org/2000/svg" version="1.1" viewBox="0 0 792 612">
  <!-- Generator: Adobe Illustrator 29.4.0, SVG Export Plug-In . SVG Version: 2.1.0 Build 2)  -->
  <defs>
    <style>
      .st0 {
        fill: #406072;
      }

      .st1 {
        fill: #d3c7b4;
      }
    </style>
  </defs>
  <path class="st1" d="M473.69,283.05c-6.06,11.6-14.91,20.96-26.57,28.11,4.7,2.89,9.68,5.26,14.94,7.1,10.23-7.56,18.38-16.84,24.45-27.85l-12.82-7.36Z"/>
  <path class="st1" d="M447.24,327.27c-13.24,6.52-27.62,9.78-43.1,9.78-24.42,0-45.22-6.86-62.41-20.58-3.04-2.42-5.97-5.06-8.78-7.91-.5-.5-.99-1.02-1.47-1.53-17.75-18.71-26.62-41.52-26.62-68.44s8.87-49.72,26.62-68.43c3.74,2.73,7.25,5.9,10.56,9.47-15.15,16.06-22.73,35.71-22.73,58.95s7.57,42.9,22.72,58.95c.38.4.76.8,1.14,1.19,2.89,2.95,5.92,5.63,9.1,8.04,14.34,10.91,31.63,16.37,51.87,16.37,9.98,0,19.41-1.63,28.33-4.88,4.67,3.48,9.59,6.49,14.77,9.01Z"/>
  <path class="st1" d="M485.96,185.95l-12.82,7.36c-6.01-11.15-14.69-20.25-26.06-27.28-.67-.41-1.34-.83-2.03-1.22-4.05-2.35-8.23-4.32-12.55-5.9-8.88-3.25-18.33-4.87-28.36-4.87-20.25,0-37.54,5.46-51.88,16.36-3.34-3.58-6.85-6.81-10.53-9.68,17.19-13.73,37.98-20.58,62.41-20.58,15.51,0,29.86,3.27,43.08,9.79,1.66.82,3.31,1.69,4.92,2.62,3.46,1.97,6.75,4.11,9.84,6.41,9.89,7.33,17.88,16.33,23.98,27Z"/>
  <g>
    <path class="st0" d="M378.16,238.58c0,26.73-8.51,49.33-25.5,67.78-.13.14-.26.28-.38.4-3.18-2.41-6.21-5.09-9.1-8.04-.38-.39-.77-.79-1.14-1.19.24-.24.45-.47.67-.72,14.18-15.72,21.28-35.13,21.28-58.23s-7.1-42.5-21.28-58.23c-.22-.25-.43-.48-.66-.72-3.31-3.57-6.82-6.74-10.56-9.47-12.18-8.93-26.61-13.4-43.33-13.4h-57.27v163.65h57.27c16.72,0,31.15-4.46,43.33-13.39.48.51.97,1.03,1.47,1.53,2.81,2.85,5.74,5.5,8.78,7.91-15.01,11.72-32.86,17.58-53.58,17.58h-71.73v-190.92h71.73c20.72,0,38.57,5.86,53.58,17.58,3.68,2.87,7.19,6.1,10.53,9.68.14.14.27.28.39.41,16.99,18.45,25.5,41.05,25.5,67.77Z"/>
    <path class="st0" d="M540.58,152.53c-14.55-8.27-30.55-12.4-48.01-12.4s-31.95,3.27-45.35,9.79c1.66.82,3.31,1.69,4.92,2.62,3.46,1.97,6.75,4.11,9.84,6.41,9.32-3.29,19.51-4.91,30.59-4.91,14.91,0,28.55,3.59,40.91,10.78,12.36,7.18,21.73,16.69,28.09,28.5l12.82-7.36c-8-14-19.27-25.13-33.82-33.41Z"/>
    <path class="st0" d="M574.94,290.41c-7.82,14.18-19.08,25.5-33.82,33.96-14.72,8.46-30.92,12.68-48.55,12.68s-31.93-3.26-45.33-9.78c-5.18-2.52-10.1-5.53-14.77-9.01-3.87-2.91-7.57-6.14-11.08-9.71-18.73-19-28.08-42.31-28.08-69.96s9.35-50.96,28.08-69.95c3.52-3.57,7.23-6.82,11.11-9.72,4.32,1.58,8.51,3.55,12.55,5.9.69.39,1.36.81,2.03,1.22-5.55,3.4-10.71,7.54-15.46,12.41-15.92,16.27-23.87,36.32-23.87,60.14s7.95,43.87,23.87,60.15c4.77,4.87,9.94,9.02,15.49,12.43,4.7,2.89,9.68,5.26,14.94,7.1,9.3,3.26,19.47,4.88,30.52,4.88,14.91,0,28.64-3.64,41.19-10.91,12.54-7.27,22-17,28.36-29.18l12.82,7.36Z"/>
  </g>
  <g>
    <path class="st0" d="M66.56,384.2c6.32,0,11.57,2.24,15.74,6.73,4.18,4.49,6.26,9.98,6.26,16.47s-2.09,11.99-6.26,16.47c-4.18,4.49-9.42,6.73-15.74,6.73h-18.1v-46.4h18.1ZM66.56,424.77c4.73,0,8.6-1.66,11.6-4.97,3-3.31,4.51-7.45,4.51-12.4s-1.5-9.08-4.51-12.4c-3.01-3.32-6.87-4.97-11.6-4.97h-11.93v34.74h11.93Z"/>
    <path class="st0" d="M123.57,430.6l-10.39-17.77h-10.95v17.77h-6.17v-46.4h18.56c3.98,0,7.38,1.4,10.21,4.21,2.83,2.81,4.24,6.2,4.24,10.18,0,3.01-.89,5.75-2.68,8.22-1.79,2.47-4.1,4.22-6.93,5.24l10.94,18.56h-6.83ZM102.23,389.96v17.3h12.4c2.3,0,4.25-.85,5.87-2.55,1.61-1.7,2.42-3.75,2.42-6.13s-.81-4.42-2.42-6.1c-1.61-1.68-3.57-2.52-5.87-2.52h-12.4Z"/>
    <path class="st0" d="M140.34,431.33c-1.19,0-2.21-.42-3.05-1.26-.84-.84-1.26-1.86-1.26-3.05s.42-2.21,1.26-3.05c.84-.84,1.86-1.26,3.05-1.26s2.26.42,3.08,1.26c.82.84,1.23,1.86,1.23,3.05s-.41,2.21-1.23,3.05c-.82.84-1.85,1.26-3.08,1.26Z"/>
    <path class="st0" d="M191.78,431.46c-7.03,0-12.83-2.32-17.4-6.96-4.57-4.64-6.86-10.34-6.86-17.1s2.29-12.46,6.86-17.1c4.57-4.64,10.37-6.96,17.4-6.96,4.24,0,8.14,1.02,11.7,3.05,3.56,2.03,6.33,4.77,8.32,8.22l-5.37,3.12c-1.33-2.56-3.3-4.61-5.93-6.13-2.63-1.52-5.54-2.29-8.72-2.29-5.35,0-9.71,1.72-13.09,5.17-3.38,3.45-5.07,7.76-5.07,12.93s1.69,9.41,5.07,12.86c3.38,3.45,7.75,5.17,13.09,5.17,3.18,0,6.09-.76,8.72-2.29,2.63-1.52,4.61-3.55,5.93-6.07l5.37,3.05c-1.95,3.45-4.71,6.2-8.29,8.25-3.58,2.05-7.49,3.08-11.73,3.08Z"/>
    <path class="st0" d="M248.8,430.6l-3.79-10.41h-20.87l-3.79,10.41h-6.56l17.3-46.4h6.96l17.3,46.4h-6.56ZM226.24,414.42h16.67l-8.33-22.91-8.33,22.91Z"/>
    <path class="st0" d="M288.37,430.6l-10.39-17.77h-10.95v17.77h-6.17v-46.4h18.56c3.98,0,7.38,1.4,10.21,4.21,2.83,2.81,4.24,6.2,4.24,10.18,0,3.01-.89,5.75-2.68,8.22-1.79,2.47-4.1,4.22-6.93,5.24l10.94,18.56h-6.83ZM267.03,389.96v17.3h12.4c2.3,0,4.25-.85,5.87-2.55,1.61-1.7,2.42-3.75,2.42-6.13s-.81-4.42-2.42-6.1c-1.61-1.68-3.57-2.52-5.87-2.52h-12.4Z"/>
    <path class="st0" d="M307.53,424.77h20.02v5.83h-26.19v-46.4h6.17v40.57Z"/>
    <path class="st0" d="M369.15,424.43c-4.66,4.68-10.35,7.03-17.07,7.03s-12.4-2.34-17.04-7.03c-4.64-4.68-6.96-10.36-6.96-17.04s2.32-12.41,6.96-17.07c4.64-4.66,10.32-6.99,17.04-6.99s12.41,2.33,17.07,6.99c4.66,4.66,6.99,10.35,6.99,17.07s-2.33,12.35-6.99,17.04ZM339.32,420.22c3.42,3.47,7.68,5.2,12.76,5.2s9.34-1.73,12.76-5.2c3.42-3.47,5.14-7.74,5.14-12.83s-1.71-9.42-5.14-12.89c-3.43-3.47-7.68-5.2-12.76-5.2s-9.34,1.73-12.76,5.2c-3.43,3.47-5.14,7.77-5.14,12.89s1.71,9.36,5.14,12.83Z"/>
    <path class="st0" d="M396.89,431.46c-4.33,0-8.03-1.02-11.1-3.05-3.07-2.03-5.23-4.82-6.46-8.35l5.3-3.05c1.81,5.61,5.94,8.42,12.4,8.42,3.18,0,5.61-.65,7.29-1.96,1.68-1.3,2.52-3.04,2.52-5.2s-.84-3.87-2.52-4.97c-1.68-1.11-4.49-2.28-8.42-3.51-1.93-.66-3.4-1.17-4.43-1.52-1.03-.35-2.3-.92-3.83-1.69-1.53-.77-2.66-1.57-3.41-2.39-.75-.82-1.43-1.89-2.02-3.21-.6-1.33-.9-2.83-.9-4.51,0-4.02,1.41-7.21,4.24-9.58,2.83-2.36,6.27-3.55,10.34-3.55,3.67,0,6.86.93,9.58,2.78,2.72,1.86,4.76,4.31,6.13,7.36l-5.17,2.98c-1.99-4.77-5.5-7.16-10.54-7.16-2.52,0-4.55.62-6.1,1.86-1.55,1.24-2.32,2.92-2.32,5.04s.73,3.58,2.19,4.64c1.46,1.06,3.98,2.16,7.56,3.31,1.25.44,2.15.76,2.7.96.54.19,1.38.49,2.51.89,1.13.4,1.96.73,2.49,1,.53.27,1.25.64,2.15,1.13.91.49,1.58.95,2.02,1.39.44.44.96.98,1.56,1.63.6.64,1.03,1.3,1.29,1.96s.5,1.43.7,2.29c.2.86.3,1.78.3,2.76,0,4.07-1.48,7.3-4.44,9.71-2.96,2.41-6.83,3.61-11.6,3.61Z"/>
    <path class="st0" d="M458.61,431.46c-7.03,0-12.83-2.32-17.4-6.96-4.57-4.64-6.86-10.34-6.86-17.1s2.29-12.46,6.86-17.1c4.57-4.64,10.37-6.96,17.4-6.96,4.24,0,8.14,1.02,11.7,3.05,3.56,2.03,6.33,4.77,8.32,8.22l-5.37,3.12c-1.33-2.56-3.3-4.61-5.93-6.13-2.63-1.52-5.54-2.29-8.72-2.29-5.35,0-9.71,1.72-13.09,5.17-3.38,3.45-5.07,7.76-5.07,12.93s1.69,9.41,5.07,12.86c3.38,3.45,7.75,5.17,13.09,5.17,3.18,0,6.09-.76,8.72-2.29,2.63-1.52,4.61-3.55,5.93-6.07l5.37,3.05c-1.95,3.45-4.71,6.2-8.29,8.25-3.58,2.05-7.49,3.08-11.73,3.08Z"/>
    <path class="st0" d="M515.62,430.6l-3.79-10.41h-20.87l-3.79,10.41h-6.56l17.3-46.4h6.96l17.3,46.4h-6.56ZM493.06,414.42h16.67l-8.33-22.91-8.33,22.91Z"/>
    <path class="st0" d="M555.19,430.6l-10.39-17.77h-10.95v17.77h-6.17v-46.4h18.56c3.98,0,7.38,1.4,10.21,4.21,2.83,2.81,4.24,6.2,4.24,10.18,0,3.01-.89,5.75-2.68,8.22-1.79,2.47-4.1,4.22-6.93,5.24l10.94,18.56h-6.83ZM533.85,389.96v17.3h12.4c2.3,0,4.25-.85,5.87-2.55,1.61-1.7,2.42-3.75,2.42-6.13s-.81-4.42-2.42-6.1c-1.61-1.68-3.57-2.52-5.87-2.52h-12.4Z"/>
    <path class="st0" d="M579.59,430.6l-16.58-46.4h6.63l13.47,38.69,13.38-38.69h6.7l-16.64,46.4h-6.96Z"/>
    <path class="st0" d="M636.53,430.6l-3.79-10.41h-20.87l-3.79,10.41h-6.56l17.3-46.4h6.96l17.3,46.4h-6.56ZM613.98,414.42h16.67l-8.33-22.91-8.33,22.91Z"/>
    <path class="st0" d="M660.66,431.46c-3.36,0-6.32-.71-8.88-2.12-2.56-1.41-4.44-3.47-5.63-6.16l5.24-3.05c1.37,3.54,4.46,5.3,9.28,5.3,2.96,0,5.28-.71,6.96-2.12,1.68-1.41,2.52-3.51,2.52-6.3v-32.81h6.1v32.81c0,4.64-1.47,8.21-4.41,10.71-2.94,2.5-6.66,3.74-11.17,3.74Z"/>
    <path class="st0" d="M714.82,430.6l-3.79-10.41h-20.87l-3.79,10.41h-6.56l17.3-46.4h6.96l17.3,46.4h-6.56ZM692.27,414.42h16.67l-8.33-22.91-8.33,22.91Z"/>
    <path class="st0" d="M733.05,424.77h20.02v5.83h-26.19v-46.4h6.17v40.57Z"/>
  </g>
  <g>
    <path class="st1" d="M101.81,481h-1.65v-31.12h1.79l10.87,19.18,10.82-19.18h1.65v31.12h-1.65v-27.81l-10.06,17.75h-1.56l-10.19-17.97v28.03Z"/>
    <path class="st1" d="M135.07,449.88h21.91v1.65h-20.25v12.61h17.62v1.65h-17.62v13.55h20.25v1.65h-21.91v-31.12Z"/>
    <path class="st1" d="M184.85,451.58c1.92,1.13,3.45,2.66,4.58,4.58,1.13,1.92,1.7,4.02,1.7,6.28v5.99c0,2.27-.57,4.36-1.7,6.28-1.13,1.92-2.66,3.45-4.58,4.58-1.92,1.13-4.02,1.7-6.28,1.7h-11.49v-31.12h11.49c2.27,0,4.36.57,6.28,1.7ZM189.48,462.45c0-1.97-.49-3.78-1.47-5.45-.98-1.67-2.32-3-4-3.98-1.68-.98-3.51-1.47-5.48-1.47h-9.79v27.81h9.79c1.97,0,3.79-.49,5.48-1.47,1.68-.98,3.02-2.31,4-3.98.98-1.67,1.47-3.49,1.47-5.45v-5.99Z"/>
    <path class="st1" d="M222.08,449.88v1.65h-9.3v27.81h9.3v1.65h-20.16v-1.65h9.25v-27.81h-9.25v-1.65h20.16Z"/>
    <path class="st1" d="M235.87,474.56c1,1.67,2.34,3,4.02,3.98,1.68.98,3.51,1.47,5.48,1.47s3.86-.4,5.5-1.21c1.64-.81,2.93-1.92,3.87-3.35.94-1.43,1.42-3.04,1.45-4.83h1.61c0,2.06-.55,3.93-1.63,5.61-1.09,1.68-2.58,3.01-4.47,3.98-1.89.97-4,1.45-6.33,1.45s-4.37-.57-6.31-1.7c-1.94-1.13-3.47-2.66-4.6-4.58-1.13-1.92-1.7-4.02-1.7-6.28v-7.33c0-2.26.56-4.36,1.68-6.28,1.12-1.92,2.64-3.45,4.56-4.58,1.92-1.13,4.02-1.7,6.28-1.7s4.39.49,6.28,1.45c1.89.97,3.39,2.3,4.49,3.98,1.1,1.68,1.65,3.55,1.65,5.61h-1.61c-.03-1.79-.52-3.4-1.48-4.83s-2.24-2.55-3.87-3.35c-1.62-.8-3.45-1.21-5.48-1.21s-3.78.49-5.45,1.48c-1.67.98-3,2.31-3.98,3.98-.98,1.67-1.47,3.49-1.47,5.45v7.33c0,1.97.5,3.78,1.5,5.45Z"/>
    <path class="st1" d="M288.25,449.88v1.65h-9.3v27.81h9.3v1.65h-20.16v-1.65h9.25v-27.81h-9.25v-1.65h20.16Z"/>
    <path class="st1" d="M299.07,481v-31.12h1.74l21.73,21.1v-21.1h1.65v31.12h-1.65v-7.69l-21.82-21.28v28.97h-1.65Z"/>
    <path class="st1" d="M343.47,449.88h1.74l12.79,31.12h-1.79l-4.2-10.28h-15.33l-4.25,10.28h-1.74l12.79-31.12ZM337.34,469.11h13.99l-7.02-17.08-6.98,17.08Z"/>
    <path class="st1" d="M399.76,449.88h21.91v1.65h-20.25v12.61h17.62v1.65h-17.62v13.55h20.25v1.65h-21.91v-31.12Z"/>
    <path class="st1" d="M438.05,464.43c-1.59-.61-2.85-1.44-3.75-2.5-.91-1.06-1.36-2.42-1.36-4.09s.45-3.25,1.36-4.56c.91-1.31,2.19-2.33,3.84-3.04,1.65-.72,3.57-1.07,5.74-1.07s4,.44,5.74,1.32c1.74.88,3.12,2.11,4.14,3.69s1.52,3.38,1.52,5.41h-1.65c0-1.76-.43-3.31-1.3-4.65-.87-1.34-2.04-2.38-3.53-3.11-1.49-.73-3.15-1.09-4.96-1.09-1.61,0-3.11.25-4.52.76-1.4.51-2.54,1.28-3.42,2.33-.88,1.04-1.32,2.36-1.32,3.93,0,1.43.42,2.57,1.25,3.42.83.85,1.92,1.5,3.26,1.94,1.34.45,3.22.93,5.63,1.43,2.44.51,4.35.99,5.7,1.45,1.35.46,2.5,1.23,3.44,2.3.94,1.07,1.41,2.58,1.41,4.52s-.52,3.57-1.54,4.9c-1.03,1.33-2.39,2.32-4.09,2.97-1.7.66-3.55.98-5.54.98-2.47,0-4.65-.46-6.53-1.39-1.88-.92-3.31-2.23-4.31-3.91-1-1.68-1.5-3.61-1.5-5.79h1.65c0,1.91.43,3.58,1.27,5.01.85,1.43,2.08,2.54,3.69,3.33,1.61.79,3.52,1.19,5.72,1.19,2.74,0,5.01-.66,6.82-1.97,1.8-1.31,2.71-3.1,2.71-5.37,0-1.55-.39-2.74-1.16-3.58-.77-.83-1.75-1.44-2.93-1.81-1.18-.37-2.94-.8-5.3-1.27-2.53-.51-4.6-1.07-6.19-1.68Z"/>
    <path class="st1" d="M489.22,449.88v1.65h-11.76v29.46h-1.61v-29.46h-11.76v-1.65h25.13Z"/>
    <path class="st1" d="M499.01,449.88h21.91v1.65h-20.25v12.61h17.62v1.65h-17.62v13.55h20.25v1.65h-21.91v-31.12ZM512.92,440.22l1.56,2.01-7.73,5.63-.85-1.12,7.02-6.53Z"/>
    <path class="st1" d="M555.39,449.88v1.65h-11.76v29.46h-1.61v-29.46h-11.76v-1.65h25.13Z"/>
    <path class="st1" d="M586.02,449.88v1.65h-9.3v27.81h9.3v1.65h-20.16v-1.65h9.25v-27.81h-9.25v-1.65h20.16Z"/>
    <path class="st1" d="M599.81,474.56c1,1.67,2.34,3,4.02,3.98,1.68.98,3.51,1.47,5.48,1.47s3.86-.4,5.5-1.21c1.64-.81,2.93-1.92,3.87-3.35.94-1.43,1.42-3.04,1.45-4.83h1.61c0,2.06-.55,3.93-1.63,5.61-1.09,1.68-2.58,3.01-4.47,3.98-1.89.97-4,1.45-6.33,1.45s-4.37-.57-6.31-1.7c-1.94-1.13-3.47-2.66-4.6-4.58-1.13-1.92-1.7-4.02-1.7-6.28v-7.33c0-2.26.56-4.36,1.68-6.28,1.12-1.92,2.64-3.45,4.56-4.58,1.92-1.13,4.02-1.7,6.28-1.7s4.39.49,6.28,1.45c1.89.97,3.39,2.3,4.49,3.98,1.1,1.68,1.65,3.55,1.65,5.61h-1.61c-.03-1.79-.52-3.4-1.48-4.83s-2.24-2.55-3.87-3.35c-1.62-.8-3.45-1.21-5.48-1.21s-3.78.49-5.45,1.48c-1.67.98-3,2.31-3.98,3.98-.98,1.67-1.47,3.49-1.47,5.45v7.33c0,1.97.5,3.78,1.5,5.45Z"/>
    <path class="st1" d="M641.24,449.88h1.74l12.79,31.12h-1.79l-4.2-10.28h-15.33l-4.25,10.28h-1.74l12.79-31.12ZM635.11,469.11h13.99l-7.02-17.08-6.98,17.08Z"/>
  </g>
</svg>